<svg width="439" height="128" viewBox="0 0 439 128" fill="none" xmlns="http://www.w3.org/2000/svg">
<path d="M64 128C99.3462 128 128 99.3462 128 64C128 28.6538 99.3462 0 64 0C28.6538 0 0 28.6538 0 64C0 99.3462 28.6538 128 64 128Z" fill="#DB9A19"/>
<path d="M64.5 126C98.4655 126 126 98.4655 126 64.5C126 30.5345 98.4655 3 64.5 3C30.5345 3 3 30.5345 3 64.5C3 98.4655 30.5345 126 64.5 126Z" fill="#FFAB00"/>
<path d="M40.7151 54.7432C35.883 57.6506 37.9371 66 43.4441 66C44.8836 65.9193 46.2456 65.2647 47.2702 64.1608C48.2949 63.057 48.9106 61.5812 49 60.0149C48.9862 58.9641 48.7233 57.935 48.2369 57.0273C47.7506 56.1196 47.0571 55.364 46.2238 54.8337C45.3904 54.3035 44.4454 54.0166 43.4803 54.0007C42.5152 53.9848 41.5627 54.2406 40.7151 54.7432V54.7432Z" fill="#505050"/>
<path d="M26.1317 70.0243C19.8465 76.42 19.0378 78.2403 20.8394 81.6447C21.4185 82.608 22.2366 83.4185 23.2207 84.004C24.2049 84.5894 25.3245 84.9316 26.4798 85C27.6979 85 27.9334 84.4391 29.7964 77.0104C30.8201 72.6515 32.0587 68.5189 32.5193 67.899C33.3997 66.5018 33.1028 66 31.3626 66C30.6051 66 28.6294 67.5645 26.1317 70.0243Z" fill="#505050"/>
<path d="M53.5402 69.4973V73.1038L51.3244 74.0974L49.0586 75.0909L45.4853 71.9215C42.6506 69.378 41.3531 68.6428 38.8577 68.1361C36.3624 67.6294 35.6837 67.689 35.1147 68.305C34.0368 69.378 30.6331 83.0889 31.0324 84.6687C31.222 85.4039 33.5876 87.8182 36.2127 90.0934L41.0237 94.2067V99.234C41.0237 104.539 41.6525 106 43.8584 106C46.2439 106 46.6931 104.649 46.6931 97.3661V90.5405L43.2994 87.1028L39.8359 83.6552L40.9538 79.8698C41.5227 77.7834 42.2015 76.0845 42.4809 76.0845C43.6703 76.65 44.7782 77.3718 45.7748 78.2305C48.7692 80.4362 48.4398 80.3765 52.5221 78.6875C53.4304 78.3497 53.5203 79.2439 53.65 92.001C53.8197 103.794 53.9395 105.771 54.6482 105.771C55.3568 105.771 55.4966 103.784 55.6463 91.4347C55.7561 77.8331 55.816 77.0482 56.8939 76.313C57.228 76.136 57.5074 75.8719 57.7022 75.549C57.8971 75.2261 58 74.8565 58 74.4799C58 74.1032 57.8971 73.7336 57.7022 73.4107C57.5074 73.0878 57.228 72.8238 56.8939 72.6468C55.9856 72.0805 55.7561 71.2956 55.7561 68.9806C55.7561 66.3775 55.5864 66 54.6282 66C53.67 66 53.5402 66.3279 53.5402 69.4973Z" fill="#505050"/>
<path d="M28.8655 91.2749C28.0424 93.9033 26.8524 96.3848 25.3355 98.6359C23.2732 101.842 22.7995 102.96 23.0689 104.087C23.179 104.496 23.3801 104.87 23.655 105.178C23.9299 105.486 24.2706 105.719 24.6481 105.857C25.0256 105.995 25.4287 106.034 25.8233 105.97C26.2179 105.907 26.5923 105.743 26.9147 105.492C29.2371 103.415 34.8851 92.5116 33.8818 91.8883C33.1281 91.2698 32.4056 90.6093 31.7174 89.9095L29.7666 88L28.8655 91.2749Z" fill="#505050"/>
<path d="M88.5484 30.6072C86.2707 34.2507 83.8811 38.077 83.2304 39.0919L82 41H85.5487L89.128 35.2251C91.0803 32.0484 92.7784 29.4501 92.8902 29.4501C94.0435 31.0274 95.1029 32.6711 96.0628 34.3725C97.7304 37.0418 99.2149 39.3152 99.3573 39.3863C99.4996 39.4573 100.12 39.2137 100.771 38.8078L101.92 38.0872L101.198 36.8997L100.476 35.7122L101.421 34.5857C101.738 34.1371 102.143 33.7573 102.611 33.4693C103.624 34.6105 104.498 35.8676 105.214 37.2143L107.522 41H111L107.126 34.6872C105.893 32.5031 104.535 30.392 103.059 28.3642C102.307 28.9635 101.625 29.6443 101.025 30.394C100.079 31.551 99.1743 32.6269 99.0726 32.7791C98.9709 32.9313 97.5473 31.0436 96.0221 28.5469C95.1141 26.9612 94.0947 25.4418 92.9716 24C92.7784 24.0304 90.7956 26.994 88.5484 30.6072Z" fill="#505050"/>
<path d="M79.5323 46.5846C77.2542 47.4324 75.3101 48.9606 73.9784 50.9505C72.7238 53.5782 72.0498 56.4333 72 59.3308C72 64.5498 73.7723 68.4639 80.1093 77.3361C86.4463 86.2083 87.5179 89.4701 86.2917 94.9499C85.8043 97.691 84.4999 100.232 82.541 102.256C81.7823 102.996 81.1955 103.886 80.8203 104.866C80.8203 105.458 83.0768 105.719 89.249 105.87L97.688 106L99.6148 104.103C101.923 101.755 103.613 97.5193 103.943 93.1434C104.52 85.3853 100.851 78.9921 88.4246 65.7441C86.4857 63.7103 84.6691 61.569 82.9841 59.3308C80.7687 56.069 82.3762 53.7205 86.8172 53.7205C89.486 53.7205 89.5272 53.7205 91.5055 50.5189C92.6184 48.7625 93.3603 46.9961 93.2366 46.6047C92.9069 45.8018 82.2113 45.8018 79.5323 46.5846Z" fill="#505050"/>
<path d="M97.9879 42.5327C96.5719 44.9677 96.4902 45.2587 96.7988 45.8698C97.0166 46.2967 96.9894 46.4422 96.708 46.6168C96.6084 46.7079 96.5284 46.8209 96.4735 46.9482C96.4187 47.0755 96.3902 47.214 96.3902 47.3541C96.3902 47.4942 96.4187 47.6327 96.4735 47.7599C96.5284 47.8872 96.6084 48.0003 96.708 48.0914C96.9894 48.266 96.9531 48.4503 96.4629 49.2749C96.1841 49.6821 96.0232 50.1678 96 50.6718C96.0908 50.8852 96.6808 51.0598 97.3434 51.0598C98.469 51.0598 98.5416 51.0598 98.6051 52.0299C98.6051 52.6411 98.8048 53 99.0045 53C99.2042 53 99.3585 52.6023 99.4039 52.0299C99.4675 51.0598 99.531 51.0598 100.657 51.0598C101.319 51.0598 101.918 50.8852 102 50.6718C101.992 50.1559 101.829 49.6564 101.537 49.2458C101.056 48.4212 101.011 48.2757 101.301 48.0622C101.401 47.9712 101.481 47.8581 101.536 47.7308C101.59 47.6036 101.619 47.4651 101.619 47.325C101.619 47.1849 101.59 47.0464 101.536 46.9191C101.481 46.7918 101.401 46.6788 101.301 46.5877C101.011 46.4131 100.992 46.2676 101.21 45.8407C101.323 45.667 101.384 45.4605 101.384 45.249C101.384 45.0375 101.323 44.831 101.21 44.6572C100.576 43.3783 99.8477 42.1553 99.0318 41C98.6259 41.4628 98.2752 41.9777 97.9879 42.5327V42.5327Z" fill="#505050"/>
<path d="M72.286 87.1532C70.2823 90.2663 69.8415 91.6677 71.0437 91.6677C71.4144 91.6677 71.3242 91.968 70.633 93.0691C69.4508 94.9409 69.4508 95.9219 70.633 95.9219H71.5246L70.1822 98.014C69.5981 98.7634 69.1937 99.6366 69 100.567C69.1102 100.867 70.1521 101.037 71.5847 101.037H73.939V102.519C73.939 103.71 74.0492 104 74.5 104C74.9508 104 75.061 103.71 75.061 102.519V101.037H77.4153C78.8479 101.037 79.8798 100.867 80 100.567C79.8063 99.6366 79.4019 98.7634 78.8178 98.014L77.4754 95.9219H78.367C79.5492 95.9219 79.5492 94.9209 78.367 93.0691C77.6658 91.968 77.5856 91.6677 77.9463 91.6677C79.1585 91.6677 78.7577 90.2663 76.714 87.1532C76.0487 86.053 75.309 84.9995 74.5 84C73.6872 84.9966 72.9473 86.0504 72.286 87.1532V87.1532Z" fill="#505050"/>
<path d="M107.319 69.6329C105.667 72.2771 105.561 72.5932 105.921 73.2569C106.186 73.7204 106.154 73.8784 105.826 74.0681C105.71 74.167 105.616 74.2898 105.552 74.428C105.488 74.5662 105.455 74.7165 105.455 74.8687C105.455 75.0209 105.488 75.1713 105.552 75.3095C105.616 75.4477 105.71 75.5705 105.826 75.6694C106.154 75.859 106.101 76.0592 105.54 76.9546C105.21 77.3941 105.021 77.9232 105 78.4716C105.106 78.7034 105.794 78.893 106.567 78.893C107.88 78.893 107.955 78.893 108.039 79.9465C108.039 80.6102 108.272 81 108.505 81C108.738 81 108.908 80.5681 108.961 79.9465C109.045 78.893 109.12 78.893 110.433 78.893C111.206 78.893 111.905 78.7034 112 78.4716C111.983 77.9223 111.795 77.3918 111.46 76.9546C110.899 76.0592 110.846 75.9011 111.174 75.6694C111.29 75.5705 111.384 75.4477 111.448 75.3095C111.512 75.1713 111.545 75.0209 111.545 74.8687C111.545 74.7165 111.512 74.5662 111.448 74.428C111.384 74.2898 111.29 74.167 111.174 74.0681C110.846 73.8784 110.814 73.7204 111.079 73.2569C111.21 73.0682 111.281 72.844 111.281 72.6143C111.281 72.3846 111.21 72.1604 111.079 71.9716C110.339 70.5827 109.489 69.2546 108.537 68C108.066 68.4928 107.657 69.0412 107.319 69.6329V69.6329Z" fill="#505050"/>
<path d="M57.3182 30.6072C55.1205 34.2507 52.815 38.077 52.1871 39.0919L51 41H54.4142L57.8774 35.2251C59.761 32.0484 61.3994 29.4501 61.5074 29.4501C62.6154 31.0329 63.6405 32.6761 64.5781 34.3725C66.1773 37.0418 67.6097 39.3152 67.747 39.3863C67.8844 39.4573 68.4828 39.2137 69.1107 38.8078L70.2292 38.0872L69.5326 36.8997L68.836 35.7122L69.768 34.5349C70.076 34.0883 70.466 33.7089 70.9159 33.4185C71.8862 34.5772 72.7194 35.8515 73.398 37.2143L75.6545 41H79L75.2719 34.6872C74.0784 32.5057 72.7682 30.3948 71.3476 28.3642C70.6195 28.9596 69.961 29.6408 69.3854 30.394C68.4828 31.551 67.6097 32.6269 67.5018 32.7791C67.3938 32.9313 66.0399 31.0436 64.5585 28.5469C63.6825 26.9612 62.6989 25.4418 61.6153 24C61.3994 24.0304 59.4765 26.994 57.3182 30.6072Z" fill="#505050"/>
<path d="M77.1684 26.4792L74.6012 30.9583L74 32H75.7178L77.4451 28.9479C78.3995 27.2708 79.2106 25.9063 79.2583 25.9063C79.8202 26.7273 80.3334 27.5867 80.7948 28.4792C81.5965 29.8854 82.3122 31.0833 82.3885 31.125C82.4649 31.1667 82.7512 31.0312 83.0661 30.8229L83.6196 30.4375L83.2761 29.8125L82.923 29.1771L83.381 28.5938C83.5301 28.3528 83.7255 28.1501 83.9536 28C84.439 28.601 84.8586 29.2617 85.2038 29.9687L86.3204 31.9687H88L86.1581 28.6667C85.5635 27.512 84.9037 26.3987 84.1827 25.3333C83.8293 25.6398 83.5092 25.9893 83.2284 26.375L82.274 27.6354C81.6812 26.9777 81.1825 26.2262 80.7948 25.4063C80.3525 24.566 79.8549 23.7618 79.3061 23C79.3061 23 78.2468 24.5729 77.1684 26.4792Z" fill="#505050"/>
<path d="M28.0988 25.3487C27.9908 26.1934 27.9712 27.0498 28.0407 27.8998C28.0988 29.5052 28.2442 30 28.564 30C28.8837 30 29 29.5052 29 27.5699C29 25.8985 28.8837 25.0848 28.6512 25.0188C28.5394 24.9836 28.42 24.9982 28.3174 25.0595C28.2147 25.1208 28.1366 25.2242 28.0988 25.3487V25.3487Z" fill="#505050"/>
<path d="M20 29.4083C20 29.9375 22.2749 33 22.703 33C23.3074 33 22.9801 32.088 21.8048 30.5455C20.6296 29.003 20 28.5976 20 29.4083Z" fill="#505050"/>
<path d="M35.5439 30.5965C33.9738 32.1951 33.6037 33 34.4224 33C34.9495 33 38 29.9593 38 29.4004C37.9888 28.5955 37.1028 29.0091 35.5439 30.5965Z" fill="#505050"/>
<path d="M26.6405 32.21C25.8448 32.5517 25.1282 33.0538 24.5355 33.6847C23.9428 34.3157 23.4866 35.062 23.1956 35.877C22.8793 37.0629 22.948 38.3185 23.3916 39.4629C23.8353 40.6073 24.631 41.5815 25.6643 42.2451C26.5592 42.7402 27.5654 43 28.5883 43C29.6112 43 30.6174 42.7402 31.5123 42.2451C32.3192 41.7698 32.9776 41.0793 33.4137 40.251C33.8497 39.4227 34.0462 38.4894 33.981 37.5558C34.0618 36.6328 33.8843 35.7055 33.4682 34.8775C33.0522 34.0494 32.414 33.3532 31.6249 32.8665C30.1098 32.0154 28.3247 31.7803 26.6405 32.21V32.21Z" fill="#505050"/>
<path d="M16 38.5043C16 39.0191 16.1623 39.0452 18.5216 38.9667C20.4589 38.9667 21 38.8184 21 38.5043C21 38.1902 20.4589 38.0855 18.5216 38.0331C16.1623 37.9546 16 37.9808 16 38.5043Z" fill="#505050"/>
<path d="M36 38.5043C36 39.0191 36.1623 39.0452 38.5108 38.9667C40.448 38.9667 41 38.8184 41 38.5043C41 38.1902 40.448 38.0855 38.5108 38.0331C36.1623 37.9546 36 37.9808 36 38.5043Z" fill="#505050"/>
<path d="M21.1579 44.9731C19.9804 46.9864 19.7028 48 20.3168 48C20.7205 48 23 44.1707 23 43.4668C22.9916 42.5235 22.3103 43.0022 21.1579 44.9731Z" fill="#505050"/>
<path d="M34 43.4991C34 44.1623 37.0332 48 37.604 48C38.4099 48 37.9734 46.8571 36.4064 44.9242C34.8395 42.9912 34 42.5115 34 43.4991Z" fill="#505050"/>
<path d="M28.0987 46.3479C27.9908 47.1945 27.9713 48.0526 28.0406 48.9044C28.0987 50.5063 28.2441 51 28.5639 51C28.8837 51 29 50.5063 29 48.5752C29 46.9075 28.8837 46.0846 28.6511 46.0187C28.5393 45.9837 28.4199 45.9982 28.3173 46.0593C28.2146 46.1205 28.1365 46.2237 28.0987 46.3479V46.3479Z" fill="#505050"/>
<path d="M172.755 42.5817H161.203V74H153.433V42.5817H142.036V36.2876H172.755V42.5817ZM190.756 52.994C189.738 52.8559 188.84 52.7868 188.063 52.7868C185.231 52.7868 183.375 53.7451 182.494 55.6618V74H175.008V45.9747H182.08L182.287 49.316C183.789 46.7432 185.87 45.4567 188.529 45.4567C189.358 45.4567 190.135 45.569 190.86 45.7934L190.756 52.994ZM209.846 74C209.5 73.3266 209.25 72.4891 209.095 71.4876C207.282 73.5079 204.925 74.518 202.024 74.518C199.278 74.518 196.999 73.7237 195.186 72.1351C193.39 70.5465 192.492 68.5435 192.492 66.126C192.492 63.156 193.588 60.8767 195.781 59.288C197.992 57.6994 201.177 56.8965 205.339 56.8792H208.784V55.2733C208.784 53.9783 208.447 52.9422 207.774 52.1652C207.117 51.3881 206.073 50.9996 204.64 50.9996C203.379 50.9996 202.386 51.3018 201.661 51.9062C200.953 52.5105 200.599 53.3394 200.599 54.3927H193.114C193.114 52.7695 193.614 51.2673 194.616 49.8858C195.617 48.5044 197.033 47.4252 198.864 46.6482C200.694 45.8539 202.749 45.4567 205.028 45.4567C208.482 45.4567 211.219 46.3287 213.239 48.0728C215.276 49.7995 216.295 52.2342 216.295 55.3769V67.5247C216.312 70.1839 216.684 72.1955 217.409 73.5597V74H209.846ZM203.655 68.7938C204.76 68.7938 205.779 68.5521 206.712 68.0686C207.644 67.5678 208.335 66.903 208.784 66.0742V61.2565H205.986C202.239 61.2565 200.245 62.5516 200.003 65.1417L199.977 65.5821C199.977 66.5145 200.305 67.2829 200.962 67.8873C201.618 68.4916 202.516 68.7938 203.655 68.7938ZM232.121 64.8568L237.327 45.9747H245.149L235.695 74H228.547L219.093 45.9747H226.915L232.121 64.8568ZM261.001 74.518C256.891 74.518 253.541 73.2575 250.951 70.7364C248.378 68.2154 247.092 64.8568 247.092 60.6608V59.9356C247.092 57.121 247.636 54.6085 248.724 52.3983C249.812 50.1708 251.348 48.4613 253.334 47.2698C255.337 46.0611 257.616 45.4567 260.172 45.4567C264.005 45.4567 267.019 46.6654 269.212 49.0829C271.422 51.5004 272.527 54.928 272.527 59.3657V62.4221H254.681C254.923 64.2525 255.648 65.7202 256.857 66.8253C258.083 67.9305 259.628 68.483 261.493 68.483C264.377 68.483 266.63 67.4383 268.253 65.349L271.931 69.4673C270.809 71.0559 269.289 72.2991 267.373 73.1971C265.456 74.0777 263.332 74.518 261.001 74.518ZM260.146 51.5176C258.661 51.5176 257.452 52.0184 256.52 53.0199C255.605 54.0214 255.018 55.4546 254.759 57.3195H265.171V56.7238C265.137 55.0661 264.688 53.7883 263.824 52.8904C262.961 51.9752 261.735 51.5176 260.146 51.5176ZM284.701 74H277.189V34.2155H284.701V74ZM334.431 69.2342C333.033 70.9091 331.055 72.2128 328.5 73.1453C325.944 74.0604 323.112 74.518 320.004 74.518C316.741 74.518 313.874 73.8101 311.405 72.3941C308.953 70.9609 307.054 68.8888 305.707 66.1778C304.377 63.4668 303.695 60.2809 303.66 56.6202V54.056C303.66 50.2916 304.291 47.0367 305.551 44.2912C306.829 41.5283 308.659 39.4217 311.042 37.9712C313.443 36.5035 316.248 35.7696 319.46 35.7696C323.933 35.7696 327.429 36.8402 329.95 38.9814C332.471 41.1053 333.965 44.2048 334.431 48.28H326.868C326.523 46.1215 325.754 44.5415 324.563 43.54C323.389 42.5385 321.765 42.0377 319.693 42.0377C317.051 42.0377 315.04 43.0306 313.658 45.0164C312.277 47.0022 311.578 49.9549 311.56 53.8747V56.2835C311.56 60.2378 312.311 63.225 313.814 65.2453C315.316 67.2657 317.518 68.2758 320.419 68.2758C323.337 68.2758 325.418 67.6542 326.661 66.4109V59.9097H319.59V54.1855H334.431V69.2342ZM339.093 59.7284C339.093 56.9483 339.629 54.4704 340.699 52.2947C341.77 50.119 343.307 48.4354 345.31 47.2439C347.33 46.0525 349.67 45.4567 352.329 45.4567C356.111 45.4567 359.193 46.6136 361.576 48.9275C363.976 51.2414 365.314 54.384 365.591 58.3556L365.642 60.2723C365.642 64.5719 364.442 68.0254 362.042 70.6328C359.642 73.223 356.421 74.518 352.381 74.518C348.34 74.518 345.111 73.223 342.694 70.6328C340.294 68.0427 339.093 64.5201 339.093 60.0651V59.7284ZM346.579 60.2723C346.579 62.9315 347.08 64.9691 348.081 66.385C349.083 67.7837 350.516 68.483 352.381 68.483C354.194 68.483 355.61 67.7923 356.629 66.4109C357.647 65.0122 358.157 62.7847 358.157 59.7284C358.157 57.121 357.647 55.1007 356.629 53.6674C355.61 52.2342 354.177 51.5176 352.329 51.5176C350.499 51.5176 349.083 52.2342 348.081 53.6674C347.08 55.0834 346.579 57.285 346.579 60.2723ZM378.153 74H370.641V45.9747H378.153V74ZM370.201 38.7224C370.201 37.6 370.572 36.6762 371.315 35.9509C372.075 35.2257 373.102 34.8631 374.397 34.8631C375.675 34.8631 376.694 35.2257 377.453 35.9509C378.213 36.6762 378.593 37.6 378.593 38.7224C378.593 39.862 378.205 40.7945 377.427 41.5197C376.668 42.245 375.658 42.6076 374.397 42.6076C373.136 42.6076 372.118 42.245 371.341 41.5197C370.581 40.7945 370.201 39.862 370.201 38.7224ZM400.583 74C400.238 73.3266 399.988 72.4891 399.832 71.4876C398.019 73.5079 395.662 74.518 392.761 74.518C390.016 74.518 387.736 73.7237 385.923 72.1351C384.127 70.5465 383.229 68.5435 383.229 66.126C383.229 63.156 384.326 60.8767 386.519 59.288C388.729 57.6994 391.915 56.8965 396.076 56.8792H399.521V55.2733C399.521 53.9783 399.185 52.9422 398.511 52.1652C397.855 51.3881 396.81 50.9996 395.377 50.9996C394.117 50.9996 393.124 51.3018 392.398 51.9062C391.69 52.5105 391.336 53.3394 391.336 54.3927H383.851C383.851 52.7695 384.352 51.2673 385.353 49.8858C386.355 48.5044 387.771 47.4252 389.601 46.6482C391.431 45.8539 393.486 45.4567 395.766 45.4567C399.219 45.4567 401.956 46.3287 403.976 48.0728C406.014 49.7995 407.033 52.2342 407.033 55.3769V67.5247C407.05 70.1839 407.421 72.1955 408.146 73.5597V74H400.583ZM394.393 68.7938C395.498 68.7938 396.517 68.5521 397.449 68.0686C398.382 67.5678 399.072 66.903 399.521 66.0742V61.2565H396.724C392.977 61.2565 390.983 62.5516 390.741 65.1417L390.715 65.5821C390.715 66.5145 391.043 67.2829 391.699 67.8873C392.355 68.4916 393.253 68.7938 394.393 68.7938ZM397.242 34.2155H405.401L398.226 42.245H392.139L397.242 34.2155ZM427.961 66.2555C427.961 65.3403 427.503 64.6237 426.588 64.1057C425.69 63.5704 424.24 63.0955 422.237 62.6811C415.572 61.2824 412.239 58.4506 412.239 54.1855C412.239 51.6989 413.266 49.6268 415.321 47.9691C417.393 46.2942 420.096 45.4567 423.428 45.4567C426.985 45.4567 429.826 46.2942 431.95 47.9691C434.091 49.6441 435.162 51.8198 435.162 54.4963H427.676C427.676 53.4257 427.331 52.5451 426.64 51.8544C425.949 51.1464 424.87 50.7924 423.402 50.7924C422.142 50.7924 421.166 51.0773 420.475 51.6471C419.785 52.217 419.439 52.9422 419.439 53.8229C419.439 54.6517 419.828 55.3251 420.605 55.8432C421.399 56.3439 422.729 56.7842 424.594 57.1641C426.459 57.5267 428.03 57.9412 429.308 58.4074C433.262 59.8579 435.239 62.3703 435.239 65.9447C435.239 68.5003 434.143 70.5724 431.95 72.161C429.757 73.7324 426.925 74.518 423.454 74.518C421.106 74.518 419.016 74.1036 417.186 73.2748C415.373 72.4287 413.948 71.2804 412.912 69.8299C411.876 68.3621 411.358 66.7822 411.358 65.0899H418.455C418.524 66.4195 419.016 67.4383 419.932 68.1463C420.847 68.8543 422.073 69.2083 423.61 69.2083C425.043 69.2083 426.122 68.9406 426.847 68.4053C427.59 67.8527 427.961 67.1361 427.961 66.2555Z" fill="#505050"/>
<path d="M141 87L437 88" stroke="#FFAB00" stroke-width="3" stroke-miterlimit="10"/>
<path d="M217.889 107V97.0469H221.375C222.583 97.0469 223.499 97.2793 224.123 97.7441C224.747 98.2044 225.06 98.8812 225.06 99.7744C225.06 100.262 224.934 100.693 224.684 101.066C224.433 101.436 224.084 101.707 223.638 101.88C224.148 102.007 224.549 102.265 224.841 102.652C225.137 103.04 225.285 103.514 225.285 104.074C225.285 105.031 224.98 105.756 224.369 106.248C223.758 106.74 222.888 106.991 221.758 107H217.889ZM219.939 102.666V105.353H221.696C222.179 105.353 222.555 105.239 222.824 105.011C223.098 104.778 223.234 104.459 223.234 104.054C223.234 103.142 222.763 102.68 221.819 102.666H219.939ZM219.939 101.217H221.457C222.492 101.199 223.009 100.786 223.009 99.9795C223.009 99.5283 222.877 99.2048 222.612 99.0088C222.353 98.8083 221.94 98.708 221.375 98.708H219.939V101.217ZM230.986 107C230.895 106.822 230.829 106.601 230.788 106.337C230.31 106.87 229.688 107.137 228.922 107.137C228.197 107.137 227.596 106.927 227.117 106.508C226.643 106.089 226.406 105.56 226.406 104.922C226.406 104.138 226.696 103.536 227.274 103.117C227.858 102.698 228.699 102.486 229.797 102.481H230.706V102.058C230.706 101.716 230.617 101.442 230.439 101.237C230.266 101.032 229.991 100.93 229.612 100.93C229.28 100.93 229.018 101.009 228.826 101.169C228.639 101.328 228.546 101.547 228.546 101.825H226.57C226.57 101.397 226.702 101 226.967 100.636C227.231 100.271 227.605 99.9863 228.088 99.7812C228.571 99.5716 229.113 99.4668 229.715 99.4668C230.626 99.4668 231.349 99.6969 231.882 100.157C232.42 100.613 232.688 101.256 232.688 102.085V105.291C232.693 105.993 232.791 106.524 232.982 106.884V107H230.986ZM229.353 105.626C229.644 105.626 229.913 105.562 230.159 105.435C230.405 105.302 230.588 105.127 230.706 104.908V103.637H229.968C228.979 103.637 228.452 103.979 228.389 104.662L228.382 104.778C228.382 105.024 228.468 105.227 228.642 105.387C228.815 105.546 229.052 105.626 229.353 105.626ZM236.571 97.7852V99.6035H237.836V101.053H236.571V104.744C236.571 105.018 236.624 105.214 236.729 105.332C236.833 105.451 237.034 105.51 237.33 105.51C237.549 105.51 237.743 105.494 237.911 105.462V106.959C237.524 107.077 237.125 107.137 236.715 107.137C235.329 107.137 234.623 106.437 234.596 105.038V101.053H233.516V99.6035H234.596V97.7852H236.571ZM242.341 107.137C241.256 107.137 240.372 106.804 239.688 106.139C239.009 105.473 238.67 104.587 238.67 103.479V103.288C238.67 102.545 238.813 101.882 239.101 101.299C239.388 100.711 239.793 100.26 240.317 99.9453C240.846 99.6263 241.448 99.4668 242.122 99.4668C243.134 99.4668 243.929 99.7858 244.508 100.424C245.091 101.062 245.383 101.966 245.383 103.138V103.944H240.673C240.737 104.427 240.928 104.815 241.247 105.106C241.571 105.398 241.979 105.544 242.471 105.544C243.232 105.544 243.826 105.268 244.255 104.717L245.226 105.804C244.929 106.223 244.528 106.551 244.022 106.788C243.517 107.021 242.956 107.137 242.341 107.137ZM242.115 101.066C241.723 101.066 241.404 101.199 241.158 101.463C240.917 101.727 240.762 102.105 240.693 102.598H243.441V102.44C243.432 102.003 243.314 101.666 243.086 101.429C242.858 101.187 242.535 101.066 242.115 101.066ZM249.724 104.32C249.724 103.86 249.851 103.434 250.106 103.042C250.366 102.65 250.84 102.215 251.528 101.736C251.232 101.34 251 100.968 250.831 100.622C250.662 100.271 250.578 99.9066 250.578 99.5283C250.578 98.7536 250.822 98.1247 251.31 97.6416C251.802 97.154 252.463 96.9102 253.292 96.9102C254.035 96.9102 254.643 97.1312 255.117 97.5732C255.596 98.0153 255.835 98.5667 255.835 99.2275C255.835 100.021 255.434 100.72 254.632 101.326L253.866 101.88L255.582 103.876C255.851 103.347 255.985 102.764 255.985 102.126H257.667C257.667 103.42 257.368 104.468 256.771 105.271L258.262 107H256.02L255.507 106.412C254.773 106.895 253.93 107.137 252.978 107.137C251.993 107.137 251.205 106.879 250.612 106.364C250.02 105.845 249.724 105.163 249.724 104.32ZM253.073 105.551C253.547 105.551 253.996 105.419 254.42 105.154L252.458 102.885L252.314 102.987C251.909 103.334 251.706 103.742 251.706 104.211C251.706 104.607 251.831 104.931 252.082 105.182C252.337 105.428 252.668 105.551 253.073 105.551ZM252.349 99.501C252.349 99.8428 252.549 100.273 252.95 100.793L253.477 100.444C253.745 100.271 253.93 100.103 254.03 99.9385C254.135 99.7744 254.188 99.5785 254.188 99.3506C254.188 99.1227 254.103 98.9245 253.935 98.7559C253.766 98.5872 253.549 98.5029 253.285 98.5029C253.003 98.5029 252.775 98.5941 252.602 98.7764C252.433 98.9587 252.349 99.2002 252.349 99.501ZM266.479 104.532L268.734 97.0469H271.018L267.552 107H265.412L261.96 97.0469H264.236L266.479 104.532ZM271.209 103.233C271.209 102.5 271.35 101.846 271.633 101.271C271.915 100.697 272.321 100.253 272.85 99.9385C273.383 99.624 274 99.4668 274.702 99.4668C275.7 99.4668 276.514 99.7721 277.143 100.383C277.776 100.993 278.129 101.823 278.202 102.871L278.216 103.377C278.216 104.512 277.899 105.423 277.266 106.111C276.632 106.795 275.782 107.137 274.716 107.137C273.649 107.137 272.797 106.795 272.159 106.111C271.526 105.428 271.209 104.498 271.209 103.322V103.233ZM273.185 103.377C273.185 104.079 273.317 104.617 273.581 104.99C273.845 105.359 274.224 105.544 274.716 105.544C275.194 105.544 275.568 105.362 275.837 104.997C276.106 104.628 276.24 104.04 276.24 103.233C276.24 102.545 276.106 102.012 275.837 101.634C275.568 101.256 275.19 101.066 274.702 101.066C274.219 101.066 273.845 101.256 273.581 101.634C273.317 102.007 273.185 102.589 273.185 103.377ZM281.518 107H279.535V96.5H281.518V107ZM285.517 97.7852V99.6035H286.781V101.053H285.517V104.744C285.517 105.018 285.569 105.214 285.674 105.332C285.779 105.451 285.979 105.51 286.275 105.51C286.494 105.51 286.688 105.494 286.856 105.462V106.959C286.469 107.077 286.07 107.137 285.66 107.137C284.275 107.137 283.568 106.437 283.541 105.038V101.053H282.461V99.6035H283.541V97.7852H285.517ZM292.168 107C292.077 106.822 292.011 106.601 291.97 106.337C291.491 106.87 290.869 107.137 290.104 107.137C289.379 107.137 288.777 106.927 288.299 106.508C287.825 106.089 287.588 105.56 287.588 104.922C287.588 104.138 287.877 103.536 288.456 103.117C289.039 102.698 289.88 102.486 290.979 102.481H291.888V102.058C291.888 101.716 291.799 101.442 291.621 101.237C291.448 101.032 291.172 100.93 290.794 100.93C290.461 100.93 290.199 101.009 290.008 101.169C289.821 101.328 289.728 101.547 289.728 101.825H287.752C287.752 101.397 287.884 101 288.148 100.636C288.413 100.271 288.786 99.9863 289.27 99.7812C289.753 99.5716 290.295 99.4668 290.896 99.4668C291.808 99.4668 292.53 99.6969 293.063 100.157C293.601 100.613 293.87 101.256 293.87 102.085V105.291C293.875 105.993 293.973 106.524 294.164 106.884V107H292.168ZM290.534 105.626C290.826 105.626 291.095 105.562 291.341 105.435C291.587 105.302 291.769 105.127 291.888 104.908V103.637H291.149C290.16 103.637 289.634 103.979 289.57 104.662L289.563 104.778C289.563 105.024 289.65 105.227 289.823 105.387C289.996 105.546 290.233 105.626 290.534 105.626ZM298.566 103.247C298.566 102.094 298.824 101.176 299.339 100.492C299.858 99.8086 300.567 99.4668 301.465 99.4668C302.185 99.4668 302.78 99.7357 303.249 100.273V96.5H305.231V107H303.447L303.352 106.214C302.859 106.829 302.226 107.137 301.451 107.137C300.581 107.137 299.881 106.795 299.353 106.111C298.828 105.423 298.566 104.468 298.566 103.247ZM300.542 103.391C300.542 104.083 300.663 104.614 300.904 104.983C301.146 105.353 301.497 105.537 301.957 105.537C302.568 105.537 302.998 105.28 303.249 104.765V101.846C303.003 101.331 302.577 101.073 301.971 101.073C301.018 101.073 300.542 101.846 300.542 103.391ZM310.167 107.137C309.082 107.137 308.198 106.804 307.515 106.139C306.836 105.473 306.496 104.587 306.496 103.479V103.288C306.496 102.545 306.64 101.882 306.927 101.299C307.214 100.711 307.619 100.26 308.144 99.9453C308.672 99.6263 309.274 99.4668 309.948 99.4668C310.96 99.4668 311.755 99.7858 312.334 100.424C312.917 101.062 313.209 101.966 313.209 103.138V103.944H308.499C308.563 104.427 308.754 104.815 309.073 105.106C309.397 105.398 309.805 105.544 310.297 105.544C311.058 105.544 311.653 105.268 312.081 104.717L313.052 105.804C312.756 106.223 312.354 106.551 311.849 106.788C311.343 107.021 310.782 107.137 310.167 107.137ZM309.941 101.066C309.549 101.066 309.23 101.199 308.984 101.463C308.743 101.727 308.588 102.105 308.52 102.598H311.268V102.44C311.258 102.003 311.14 101.666 310.912 101.429C310.684 101.187 310.361 101.066 309.941 101.066ZM325.035 98.708H321.986V107H319.936V98.708H316.928V97.0469H325.035V98.708ZM329.786 101.456C329.517 101.42 329.28 101.401 329.075 101.401C328.328 101.401 327.838 101.654 327.605 102.16V107H325.63V99.6035H327.496L327.551 100.485C327.947 99.8063 328.496 99.4668 329.198 99.4668C329.417 99.4668 329.622 99.4964 329.813 99.5557L329.786 101.456ZM332.828 107H330.846V99.6035H332.828V107ZM330.729 97.6895C330.729 97.3932 330.827 97.1494 331.023 96.958C331.224 96.7666 331.495 96.6709 331.837 96.6709C332.174 96.6709 332.443 96.7666 332.644 96.958C332.844 97.1494 332.944 97.3932 332.944 97.6895C332.944 97.9902 332.842 98.2363 332.637 98.4277C332.436 98.6191 332.17 98.7148 331.837 98.7148C331.504 98.7148 331.235 98.6191 331.03 98.4277C330.83 98.2363 330.729 97.9902 330.729 97.6895ZM336.547 107H334.564V96.5H336.547V107ZM340.108 100.41C340.632 99.7812 341.291 99.4668 342.084 99.4668C343.688 99.4668 344.502 100.399 344.524 102.263V107H342.549V102.317C342.549 101.894 342.458 101.581 342.275 101.381C342.093 101.176 341.79 101.073 341.366 101.073C340.787 101.073 340.368 101.297 340.108 101.743V107H338.133V96.5H340.108V100.41ZM350.301 107C350.21 106.822 350.144 106.601 350.103 106.337C349.624 106.87 349.002 107.137 348.236 107.137C347.512 107.137 346.91 106.927 346.432 106.508C345.958 106.089 345.721 105.56 345.721 104.922C345.721 104.138 346.01 103.536 346.589 103.117C347.172 102.698 348.013 102.486 349.111 102.481H350.021V102.058C350.021 101.716 349.932 101.442 349.754 101.237C349.581 101.032 349.305 100.93 348.927 100.93C348.594 100.93 348.332 101.009 348.141 101.169C347.954 101.328 347.86 101.547 347.86 101.825H345.885C345.885 101.397 346.017 101 346.281 100.636C346.546 100.271 346.919 99.9863 347.402 99.7812C347.885 99.5716 348.428 99.4668 349.029 99.4668C349.941 99.4668 350.663 99.6969 351.196 100.157C351.734 100.613 352.003 101.256 352.003 102.085V105.291C352.007 105.993 352.105 106.524 352.297 106.884V107H350.301ZM348.667 105.626C348.959 105.626 349.228 105.562 349.474 105.435C349.72 105.302 349.902 105.127 350.021 104.908V103.637H349.282C348.293 103.637 347.767 103.979 347.703 104.662L347.696 104.778C347.696 105.024 347.783 105.227 347.956 105.387C348.129 105.546 348.366 105.626 348.667 105.626ZM357.526 104.956C357.526 104.715 357.406 104.525 357.164 104.389C356.927 104.247 356.544 104.122 356.016 104.013C354.257 103.644 353.377 102.896 353.377 101.771C353.377 101.114 353.648 100.567 354.19 100.13C354.737 99.6878 355.451 99.4668 356.33 99.4668C357.269 99.4668 358.019 99.6878 358.579 100.13C359.144 100.572 359.427 101.146 359.427 101.853H357.451C357.451 101.57 357.36 101.338 357.178 101.155C356.995 100.968 356.711 100.875 356.323 100.875C355.991 100.875 355.733 100.95 355.551 101.101C355.368 101.251 355.277 101.442 355.277 101.675C355.277 101.894 355.38 102.071 355.585 102.208C355.795 102.34 356.146 102.456 356.638 102.557C357.13 102.652 357.545 102.762 357.882 102.885C358.925 103.268 359.447 103.931 359.447 104.874C359.447 105.549 359.158 106.095 358.579 106.515C358 106.929 357.253 107.137 356.337 107.137C355.717 107.137 355.166 107.027 354.683 106.809C354.204 106.585 353.828 106.282 353.555 105.899C353.281 105.512 353.145 105.095 353.145 104.648H355.018C355.036 104.999 355.166 105.268 355.407 105.455C355.649 105.642 355.972 105.735 356.378 105.735C356.756 105.735 357.041 105.665 357.232 105.523C357.428 105.378 357.526 105.188 357.526 104.956Z" fill="#57606F"/>
</svg>
